<?xml version="1.0" encoding="utf-8" standalone="no"?>
<!DOCTYPE svg PUBLIC "-//W3C//DTD SVG 1.1//EN"
  "http://www.w3.org/Graphics/SVG/1.1/DTD/svg11.dtd">
<svg xmlns:xlink="http://www.w3.org/1999/xlink" width="468pt" height="144pt" viewBox="0 0 468 144" xmlns="http://www.w3.org/2000/svg" version="1.1">
 <metadata>
  <rdf:RDF xmlns:dc="http://purl.org/dc/elements/1.1/" xmlns:cc="http://creativecommons.org/ns#" xmlns:rdf="http://www.w3.org/1999/02/22-rdf-syntax-ns#">
   <cc:Work>
    <dc:type rdf:resource="http://purl.org/dc/dcmitype/StillImage"/>
    <dc:date>2026-07-13T13:41:36.162654</dc:date>
    <dc:format>image/svg+xml</dc:format>
    <dc:creator>
     <cc:Agent>
      <dc:title>Matplotlib v3.10.8, https://matplotlib.org/</dc:title>
     </cc:Agent>
    </dc:creator>
   </cc:Work>
  </rdf:RDF>
 </metadata>
 <defs>
  <style type="text/css">*{stroke-linejoin: round; stroke-linecap: butt}</style>
 </defs>
 <g id="figure_1">
  <g id="patch_1">
   <path d="M 0 144 
L 468 144 
L 468 0 
L 0 0 
z
" style="fill: #ffffff"/>
  </g>
  <g id="axes_1">
   <g id="patch_2">
    <path d="M 16 120 
L 452 120 
L 452 20 
L 16 20 
z
" style="fill: #ffffff"/>
   </g>
   <g id="matplotlib.axis_1">
    <g id="xtick_1">
     <g id="line2d_1">
      <path d="M 16 120 
L 16 20 
" clip-path="url(#p78f13445f6)" style="fill: none; stroke-dasharray: 0.35,0.7; stroke-dashoffset: 0; stroke: #777777; stroke-opacity: 0.8; stroke-width: 0.35"/>
     </g>
     <g id="line2d_2">
      <defs>
       <path id="m7ce17dc945" d="M 0 0 
L 0 2 
" style="stroke: #000000; stroke-width: 0.4"/>
      </defs>
      <g>
       <use xlink:href="#m7ce17dc945" x="16" y="120" style="stroke: #000000; stroke-width: 0.4"/>
      </g>
     </g>
     <g id="text_1">
      <!-- 0 -->
      <g transform="translate(14.470742 127.436797) scale(0.055 -0.055)">
       <defs>
        <path id="ArialMT-30" d="M 266 2259 
Q 266 3072 433 3567 
Q 600 4063 929 4331 
Q 1259 4600 1759 4600 
Q 2128 4600 2406 4451 
Q 2684 4303 2865 4023 
Q 3047 3744 3150 3342 
Q 3253 2941 3253 2259 
Q 3253 1453 3087 958 
Q 2922 463 2592 192 
Q 2263 -78 1759 -78 
Q 1097 -78 719 397 
Q 266 969 266 2259 
z
M 844 2259 
Q 844 1131 1108 757 
Q 1372 384 1759 384 
Q 2147 384 2411 759 
Q 2675 1134 2675 2259 
Q 2675 3391 2411 3762 
Q 2147 4134 1753 4134 
Q 1366 4134 1134 3806 
Q 844 3388 844 2259 
z
" transform="scale(0.015625)"/>
       </defs>
       <use xlink:href="#ArialMT-30"/>
      </g>
     </g>
    </g>
    <g id="xtick_2">
     <g id="line2d_3">
      <path d="M 69.22252 120 
L 69.22252 20 
" clip-path="url(#p78f13445f6)" style="fill: none; stroke-dasharray: 0.35,0.7; stroke-dashoffset: 0; stroke: #777777; stroke-opacity: 0.8; stroke-width: 0.35"/>
     </g>
     <g id="line2d_4">
      <g>
       <use xlink:href="#m7ce17dc945" x="69.22252" y="120" style="stroke: #000000; stroke-width: 0.4"/>
      </g>
     </g>
     <g id="text_2">
      <!-- 500 -->
      <g transform="translate(64.634747 127.436797) scale(0.055 -0.055)">
       <defs>
        <path id="ArialMT-35" d="M 266 1200 
L 856 1250 
Q 922 819 1161 601 
Q 1400 384 1738 384 
Q 2144 384 2425 690 
Q 2706 997 2706 1503 
Q 2706 1984 2436 2262 
Q 2166 2541 1728 2541 
Q 1456 2541 1237 2417 
Q 1019 2294 894 2097 
L 366 2166 
L 809 4519 
L 3088 4519 
L 3088 3981 
L 1259 3981 
L 1013 2750 
Q 1425 3038 1878 3038 
Q 2478 3038 2890 2622 
Q 3303 2206 3303 1553 
Q 3303 931 2941 478 
Q 2500 -78 1738 -78 
Q 1113 -78 717 272 
Q 322 622 266 1200 
z
" transform="scale(0.015625)"/>
       </defs>
       <use xlink:href="#ArialMT-35"/>
       <use xlink:href="#ArialMT-30" transform="translate(55.615234 0)"/>
       <use xlink:href="#ArialMT-30" transform="translate(111.230469 0)"/>
      </g>
     </g>
    </g>
    <g id="xtick_3">
     <g id="line2d_5">
      <path d="M 122.44504 120 
L 122.44504 20 
" clip-path="url(#p78f13445f6)" style="fill: none; stroke-dasharray: 0.35,0.7; stroke-dashoffset: 0; stroke: #777777; stroke-opacity: 0.8; stroke-width: 0.35"/>
     </g>
     <g id="line2d_6">
      <g>
       <use xlink:href="#m7ce17dc945" x="122.44504" y="120" style="stroke: #000000; stroke-width: 0.4"/>
      </g>
     </g>
     <g id="text_3">
      <!-- 1000 -->
      <g transform="translate(116.328009 127.436797) scale(0.055 -0.055)">
       <defs>
        <path id="ArialMT-31" d="M 2384 0 
L 1822 0 
L 1822 3584 
Q 1619 3391 1289 3197 
Q 959 3003 697 2906 
L 697 3450 
Q 1169 3672 1522 3987 
Q 1875 4303 2022 4600 
L 2384 4600 
L 2384 0 
z
" transform="scale(0.015625)"/>
       </defs>
       <use xlink:href="#ArialMT-31"/>
       <use xlink:href="#ArialMT-30" transform="translate(55.615234 0)"/>
       <use xlink:href="#ArialMT-30" transform="translate(111.230469 0)"/>
       <use xlink:href="#ArialMT-30" transform="translate(166.845703 0)"/>
      </g>
     </g>
    </g>
    <g id="xtick_4">
     <g id="line2d_7">
      <path d="M 175.66756 120 
L 175.66756 20 
" clip-path="url(#p78f13445f6)" style="fill: none; stroke-dasharray: 0.35,0.7; stroke-dashoffset: 0; stroke: #777777; stroke-opacity: 0.8; stroke-width: 0.35"/>
     </g>
     <g id="line2d_8">
      <g>
       <use xlink:href="#m7ce17dc945" x="175.66756" y="120" style="stroke: #000000; stroke-width: 0.4"/>
      </g>
     </g>
     <g id="text_4">
      <!-- 1500 -->
      <g transform="translate(169.550529 127.436797) scale(0.055 -0.055)">
       <use xlink:href="#ArialMT-31"/>
       <use xlink:href="#ArialMT-35" transform="translate(55.615234 0)"/>
       <use xlink:href="#ArialMT-30" transform="translate(111.230469 0)"/>
       <use xlink:href="#ArialMT-30" transform="translate(166.845703 0)"/>
      </g>
     </g>
    </g>
    <g id="xtick_5">
     <g id="line2d_9">
      <path d="M 228.89008 120 
L 228.89008 20 
" clip-path="url(#p78f13445f6)" style="fill: none; stroke-dasharray: 0.35,0.7; stroke-dashoffset: 0; stroke: #777777; stroke-opacity: 0.8; stroke-width: 0.35"/>
     </g>
     <g id="line2d_10">
      <g>
       <use xlink:href="#m7ce17dc945" x="228.89008" y="120" style="stroke: #000000; stroke-width: 0.4"/>
      </g>
     </g>
     <g id="text_5">
      <!-- 2000 -->
      <g transform="translate(222.773049 127.436797) scale(0.055 -0.055)">
       <defs>
        <path id="ArialMT-32" d="M 3222 541 
L 3222 0 
L 194 0 
Q 188 203 259 391 
Q 375 700 629 1000 
Q 884 1300 1366 1694 
Q 2113 2306 2375 2664 
Q 2638 3022 2638 3341 
Q 2638 3675 2398 3904 
Q 2159 4134 1775 4134 
Q 1369 4134 1125 3890 
Q 881 3647 878 3216 
L 300 3275 
Q 359 3922 746 4261 
Q 1134 4600 1788 4600 
Q 2447 4600 2831 4234 
Q 3216 3869 3216 3328 
Q 3216 3053 3103 2787 
Q 2991 2522 2730 2228 
Q 2469 1934 1863 1422 
Q 1356 997 1212 845 
Q 1069 694 975 541 
L 3222 541 
z
" transform="scale(0.015625)"/>
       </defs>
       <use xlink:href="#ArialMT-32"/>
       <use xlink:href="#ArialMT-30" transform="translate(55.615234 0)"/>
       <use xlink:href="#ArialMT-30" transform="translate(111.230469 0)"/>
       <use xlink:href="#ArialMT-30" transform="translate(166.845703 0)"/>
      </g>
     </g>
    </g>
    <g id="xtick_6">
     <g id="line2d_11">
      <path d="M 282.1126 120 
L 282.1126 20 
" clip-path="url(#p78f13445f6)" style="fill: none; stroke-dasharray: 0.35,0.7; stroke-dashoffset: 0; stroke: #777777; stroke-opacity: 0.8; stroke-width: 0.35"/>
     </g>
     <g id="line2d_12">
      <g>
       <use xlink:href="#m7ce17dc945" x="282.1126" y="120" style="stroke: #000000; stroke-width: 0.4"/>
      </g>
     </g>
     <g id="text_6">
      <!-- 2500 -->
      <g transform="translate(275.995569 127.436797) scale(0.055 -0.055)">
       <use xlink:href="#ArialMT-32"/>
       <use xlink:href="#ArialMT-35" transform="translate(55.615234 0)"/>
       <use xlink:href="#ArialMT-30" transform="translate(111.230469 0)"/>
       <use xlink:href="#ArialMT-30" transform="translate(166.845703 0)"/>
      </g>
     </g>
    </g>
    <g id="xtick_7">
     <g id="line2d_13">
      <path d="M 335.33512 120 
L 335.33512 20 
" clip-path="url(#p78f13445f6)" style="fill: none; stroke-dasharray: 0.35,0.7; stroke-dashoffset: 0; stroke: #777777; stroke-opacity: 0.8; stroke-width: 0.35"/>
     </g>
     <g id="line2d_14">
      <g>
       <use xlink:href="#m7ce17dc945" x="335.33512" y="120" style="stroke: #000000; stroke-width: 0.4"/>
      </g>
     </g>
     <g id="text_7">
      <!-- 3000 -->
      <g transform="translate(329.218089 127.436797) scale(0.055 -0.055)">
       <defs>
        <path id="ArialMT-33" d="M 269 1209 
L 831 1284 
Q 928 806 1161 595 
Q 1394 384 1728 384 
Q 2125 384 2398 659 
Q 2672 934 2672 1341 
Q 2672 1728 2419 1979 
Q 2166 2231 1775 2231 
Q 1616 2231 1378 2169 
L 1441 2663 
Q 1497 2656 1531 2656 
Q 1891 2656 2178 2843 
Q 2466 3031 2466 3422 
Q 2466 3731 2256 3934 
Q 2047 4138 1716 4138 
Q 1388 4138 1169 3931 
Q 950 3725 888 3313 
L 325 3413 
Q 428 3978 793 4289 
Q 1159 4600 1703 4600 
Q 2078 4600 2393 4439 
Q 2709 4278 2876 4000 
Q 3044 3722 3044 3409 
Q 3044 3113 2884 2869 
Q 2725 2625 2413 2481 
Q 2819 2388 3044 2092 
Q 3269 1797 3269 1353 
Q 3269 753 2831 336 
Q 2394 -81 1725 -81 
Q 1122 -81 723 278 
Q 325 638 269 1209 
z
" transform="scale(0.015625)"/>
       </defs>
       <use xlink:href="#ArialMT-33"/>
       <use xlink:href="#ArialMT-30" transform="translate(55.615234 0)"/>
       <use xlink:href="#ArialMT-30" transform="translate(111.230469 0)"/>
       <use xlink:href="#ArialMT-30" transform="translate(166.845703 0)"/>
      </g>
     </g>
    </g>
    <g id="xtick_8">
     <g id="line2d_15">
      <path d="M 388.55764 120 
L 388.55764 20 
" clip-path="url(#p78f13445f6)" style="fill: none; stroke-dasharray: 0.35,0.7; stroke-dashoffset: 0; stroke: #777777; stroke-opacity: 0.8; stroke-width: 0.35"/>
     </g>
     <g id="line2d_16">
      <g>
       <use xlink:href="#m7ce17dc945" x="388.55764" y="120" style="stroke: #000000; stroke-width: 0.4"/>
      </g>
     </g>
     <g id="text_8">
      <!-- 3500 -->
      <g transform="translate(382.440609 127.436797) scale(0.055 -0.055)">
       <use xlink:href="#ArialMT-33"/>
       <use xlink:href="#ArialMT-35" transform="translate(55.615234 0)"/>
       <use xlink:href="#ArialMT-30" transform="translate(111.230469 0)"/>
       <use xlink:href="#ArialMT-30" transform="translate(166.845703 0)"/>
      </g>
     </g>
    </g>
    <g id="xtick_9">
     <g id="line2d_17">
      <path d="M 441.78016 120 
L 441.78016 20 
" clip-path="url(#p78f13445f6)" style="fill: none; stroke-dasharray: 0.35,0.7; stroke-dashoffset: 0; stroke: #777777; stroke-opacity: 0.8; stroke-width: 0.35"/>
     </g>
     <g id="line2d_18">
      <g>
       <use xlink:href="#m7ce17dc945" x="441.78016" y="120" style="stroke: #000000; stroke-width: 0.4"/>
      </g>
     </g>
     <g id="text_9">
      <!-- 4000 -->
      <g transform="translate(435.663129 127.436797) scale(0.055 -0.055)">
       <defs>
        <path id="ArialMT-34" d="M 2069 0 
L 2069 1097 
L 81 1097 
L 81 1613 
L 2172 4581 
L 2631 4581 
L 2631 1613 
L 3250 1613 
L 3250 1097 
L 2631 1097 
L 2631 0 
L 2069 0 
z
M 2069 1613 
L 2069 3678 
L 634 1613 
L 2069 1613 
z
" transform="scale(0.015625)"/>
       </defs>
       <use xlink:href="#ArialMT-34"/>
       <use xlink:href="#ArialMT-30" transform="translate(55.615234 0)"/>
       <use xlink:href="#ArialMT-30" transform="translate(111.230469 0)"/>
       <use xlink:href="#ArialMT-30" transform="translate(166.845703 0)"/>
      </g>
     </g>
    </g>
    <g id="text_10">
     <!-- f [Hz] -->
     <g transform="translate(226.999687 136.897734) scale(0.06 -0.06)">
      <defs>
       <path id="ArialMT-66" d="M 556 0 
L 556 2881 
L 59 2881 
L 59 3319 
L 556 3319 
L 556 3672 
Q 556 4006 616 4169 
Q 697 4388 901 4523 
Q 1106 4659 1475 4659 
Q 1713 4659 2000 4603 
L 1916 4113 
Q 1741 4144 1584 4144 
Q 1328 4144 1222 4034 
Q 1116 3925 1116 3625 
L 1116 3319 
L 1763 3319 
L 1763 2881 
L 1116 2881 
L 1116 0 
L 556 0 
z
" transform="scale(0.015625)"/>
       <path id="ArialMT-20" transform="scale(0.015625)"/>
       <path id="ArialMT-5b" d="M 434 -1272 
L 434 4581 
L 1675 4581 
L 1675 4116 
L 997 4116 
L 997 -806 
L 1675 -806 
L 1675 -1272 
L 434 -1272 
z
" transform="scale(0.015625)"/>
       <path id="ArialMT-48" d="M 513 0 
L 513 4581 
L 1119 4581 
L 1119 2700 
L 3500 2700 
L 3500 4581 
L 4106 4581 
L 4106 0 
L 3500 0 
L 3500 2159 
L 1119 2159 
L 1119 0 
L 513 0 
z
" transform="scale(0.015625)"/>
       <path id="ArialMT-7a" d="M 125 0 
L 125 456 
L 2238 2881 
Q 1878 2863 1603 2863 
L 250 2863 
L 250 3319 
L 2963 3319 
L 2963 2947 
L 1166 841 
L 819 456 
Q 1197 484 1528 484 
L 3063 484 
L 3063 0 
L 125 0 
z
" transform="scale(0.015625)"/>
       <path id="ArialMT-5d" d="M 1363 -1272 
L 122 -1272 
L 122 -806 
L 800 -806 
L 800 4116 
L 122 4116 
L 122 4581 
L 1363 4581 
L 1363 -1272 
z
" transform="scale(0.015625)"/>
      </defs>
      <use xlink:href="#ArialMT-66"/>
      <use xlink:href="#ArialMT-20" transform="translate(27.783203 0)"/>
      <use xlink:href="#ArialMT-5b" transform="translate(55.566406 0)"/>
      <use xlink:href="#ArialMT-48" transform="translate(83.349609 0)"/>
      <use xlink:href="#ArialMT-7a" transform="translate(155.566406 0)"/>
      <use xlink:href="#ArialMT-5d" transform="translate(205.566406 0)"/>
     </g>
    </g>
   </g>
   <g id="matplotlib.axis_2">
    <g id="ytick_1">
     <g id="line2d_19">
      <path d="M 16 120 
L 452 120 
" clip-path="url(#p78f13445f6)" style="fill: none; stroke-dasharray: 0.35,0.7; stroke-dashoffset: 0; stroke: #777777; stroke-opacity: 0.8; stroke-width: 0.35"/>
     </g>
     <g id="line2d_20">
      <defs>
       <path id="mc7c47c0979" d="M 0 0 
L -2 0 
" style="stroke: #000000; stroke-width: 0.4"/>
      </defs>
      <g>
       <use xlink:href="#mc7c47c0979" x="16" y="120" style="stroke: #000000; stroke-width: 0.4"/>
      </g>
     </g>
     <g id="text_11">
      <!-- 0 -->
      <g transform="translate(9.441484 121.968398) scale(0.055 -0.055)">
       <use xlink:href="#ArialMT-30"/>
      </g>
     </g>
    </g>
    <g id="ytick_2">
     <g id="line2d_21">
      <path d="M 16 105.456467 
L 452 105.456467 
" clip-path="url(#p78f13445f6)" style="fill: none; stroke-dasharray: 0.35,0.7; stroke-dashoffset: 0; stroke: #777777; stroke-opacity: 0.8; stroke-width: 0.35"/>
     </g>
     <g id="line2d_22">
      <g>
       <use xlink:href="#mc7c47c0979" x="16" y="105.456467" style="stroke: #000000; stroke-width: 0.4"/>
      </g>
     </g>
     <g id="text_12">
      <!-- 2 -->
      <g transform="translate(9.441484 107.424866) scale(0.055 -0.055)">
       <use xlink:href="#ArialMT-32"/>
      </g>
     </g>
    </g>
    <g id="ytick_3">
     <g id="line2d_23">
      <path d="M 16 90.912934 
L 452 90.912934 
" clip-path="url(#p78f13445f6)" style="fill: none; stroke-dasharray: 0.35,0.7; stroke-dashoffset: 0; stroke: #777777; stroke-opacity: 0.8; stroke-width: 0.35"/>
     </g>
     <g id="line2d_24">
      <g>
       <use xlink:href="#mc7c47c0979" x="16" y="90.912934" style="stroke: #000000; stroke-width: 0.4"/>
      </g>
     </g>
     <g id="text_13">
      <!-- 4 -->
      <g transform="translate(9.441484 92.881333) scale(0.055 -0.055)">
       <use xlink:href="#ArialMT-34"/>
      </g>
     </g>
    </g>
    <g id="ytick_4">
     <g id="line2d_25">
      <path d="M 16 76.369401 
L 452 76.369401 
" clip-path="url(#p78f13445f6)" style="fill: none; stroke-dasharray: 0.35,0.7; stroke-dashoffset: 0; stroke: #777777; stroke-opacity: 0.8; stroke-width: 0.35"/>
     </g>
     <g id="line2d_26">
      <g>
       <use xlink:href="#mc7c47c0979" x="16" y="76.369401" style="stroke: #000000; stroke-width: 0.4"/>
      </g>
     </g>
     <g id="text_14">
      <!-- 6 -->
      <g transform="translate(9.441484 78.3378) scale(0.055 -0.055)">
       <defs>
        <path id="ArialMT-36" d="M 3184 3459 
L 2625 3416 
Q 2550 3747 2413 3897 
Q 2184 4138 1850 4138 
Q 1581 4138 1378 3988 
Q 1113 3794 959 3422 
Q 806 3050 800 2363 
Q 1003 2672 1297 2822 
Q 1591 2972 1913 2972 
Q 2475 2972 2870 2558 
Q 3266 2144 3266 1488 
Q 3266 1056 3080 686 
Q 2894 316 2569 119 
Q 2244 -78 1831 -78 
Q 1128 -78 684 439 
Q 241 956 241 2144 
Q 241 3472 731 4075 
Q 1159 4600 1884 4600 
Q 2425 4600 2770 4297 
Q 3116 3994 3184 3459 
z
M 888 1484 
Q 888 1194 1011 928 
Q 1134 663 1356 523 
Q 1578 384 1822 384 
Q 2178 384 2434 671 
Q 2691 959 2691 1453 
Q 2691 1928 2437 2201 
Q 2184 2475 1800 2475 
Q 1419 2475 1153 2201 
Q 888 1928 888 1484 
z
" transform="scale(0.015625)"/>
       </defs>
       <use xlink:href="#ArialMT-36"/>
      </g>
     </g>
    </g>
    <g id="ytick_5">
     <g id="line2d_27">
      <path d="M 16 61.825869 
L 452 61.825869 
" clip-path="url(#p78f13445f6)" style="fill: none; stroke-dasharray: 0.35,0.7; stroke-dashoffset: 0; stroke: #777777; stroke-opacity: 0.8; stroke-width: 0.35"/>
     </g>
     <g id="line2d_28">
      <g>
       <use xlink:href="#mc7c47c0979" x="16" y="61.825869" style="stroke: #000000; stroke-width: 0.4"/>
      </g>
     </g>
     <g id="text_15">
      <!-- 8 -->
      <g transform="translate(9.441484 63.794267) scale(0.055 -0.055)">
       <defs>
        <path id="ArialMT-38" d="M 1131 2484 
Q 781 2613 612 2850 
Q 444 3088 444 3419 
Q 444 3919 803 4259 
Q 1163 4600 1759 4600 
Q 2359 4600 2725 4251 
Q 3091 3903 3091 3403 
Q 3091 3084 2923 2848 
Q 2756 2613 2416 2484 
Q 2838 2347 3058 2040 
Q 3278 1734 3278 1309 
Q 3278 722 2862 322 
Q 2447 -78 1769 -78 
Q 1091 -78 675 323 
Q 259 725 259 1325 
Q 259 1772 486 2073 
Q 713 2375 1131 2484 
z
M 1019 3438 
Q 1019 3113 1228 2906 
Q 1438 2700 1772 2700 
Q 2097 2700 2305 2904 
Q 2513 3109 2513 3406 
Q 2513 3716 2298 3927 
Q 2084 4138 1766 4138 
Q 1444 4138 1231 3931 
Q 1019 3725 1019 3438 
z
M 838 1322 
Q 838 1081 952 856 
Q 1066 631 1291 507 
Q 1516 384 1775 384 
Q 2178 384 2440 643 
Q 2703 903 2703 1303 
Q 2703 1709 2433 1975 
Q 2163 2241 1756 2241 
Q 1359 2241 1098 1978 
Q 838 1716 838 1322 
z
" transform="scale(0.015625)"/>
       </defs>
       <use xlink:href="#ArialMT-38"/>
      </g>
     </g>
    </g>
    <g id="ytick_6">
     <g id="line2d_29">
      <path d="M 16 47.282336 
L 452 47.282336 
" clip-path="url(#p78f13445f6)" style="fill: none; stroke-dasharray: 0.35,0.7; stroke-dashoffset: 0; stroke: #777777; stroke-opacity: 0.8; stroke-width: 0.35"/>
     </g>
     <g id="line2d_30">
      <g>
       <use xlink:href="#mc7c47c0979" x="16" y="47.282336" style="stroke: #000000; stroke-width: 0.4"/>
      </g>
     </g>
     <g id="text_16">
      <!-- 10 -->
      <g transform="translate(6.382969 49.250734) scale(0.055 -0.055)">
       <use xlink:href="#ArialMT-31"/>
       <use xlink:href="#ArialMT-30" transform="translate(55.615234 0)"/>
      </g>
     </g>
    </g>
    <g id="ytick_7">
     <g id="line2d_31">
      <path d="M 16 32.738803 
L 452 32.738803 
" clip-path="url(#p78f13445f6)" style="fill: none; stroke-dasharray: 0.35,0.7; stroke-dashoffset: 0; stroke: #777777; stroke-opacity: 0.8; stroke-width: 0.35"/>
     </g>
     <g id="line2d_32">
      <g>
       <use xlink:href="#mc7c47c0979" x="16" y="32.738803" style="stroke: #000000; stroke-width: 0.4"/>
      </g>
     </g>
     <g id="text_17">
      <!-- 12 -->
      <g transform="translate(6.382969 34.707201) scale(0.055 -0.055)">
       <use xlink:href="#ArialMT-31"/>
       <use xlink:href="#ArialMT-32" transform="translate(55.615234 0)"/>
      </g>
     </g>
    </g>
    <g id="text_18">
     <!-- v rms [mm/s] -->
     <g transform="translate(1.190469 87.162813) rotate(-90) scale(0.06 -0.06)">
      <defs>
       <path id="ArialMT-76" d="M 1344 0 
L 81 3319 
L 675 3319 
L 1388 1331 
Q 1503 1009 1600 663 
Q 1675 925 1809 1294 
L 2547 3319 
L 3125 3319 
L 1869 0 
L 1344 0 
z
" transform="scale(0.015625)"/>
       <path id="ArialMT-72" d="M 416 0 
L 416 3319 
L 922 3319 
L 922 2816 
Q 1116 3169 1280 3281 
Q 1444 3394 1641 3394 
Q 1925 3394 2219 3213 
L 2025 2691 
Q 1819 2813 1613 2813 
Q 1428 2813 1281 2702 
Q 1134 2591 1072 2394 
Q 978 2094 978 1738 
L 978 0 
L 416 0 
z
" transform="scale(0.015625)"/>
       <path id="ArialMT-6d" d="M 422 0 
L 422 3319 
L 925 3319 
L 925 2853 
Q 1081 3097 1340 3245 
Q 1600 3394 1931 3394 
Q 2300 3394 2536 3241 
Q 2772 3088 2869 2813 
Q 3263 3394 3894 3394 
Q 4388 3394 4653 3120 
Q 4919 2847 4919 2278 
L 4919 0 
L 4359 0 
L 4359 2091 
Q 4359 2428 4304 2576 
Q 4250 2725 4106 2815 
Q 3963 2906 3769 2906 
Q 3419 2906 3187 2673 
Q 2956 2441 2956 1928 
L 2956 0 
L 2394 0 
L 2394 2156 
Q 2394 2531 2256 2718 
Q 2119 2906 1806 2906 
Q 1569 2906 1367 2781 
Q 1166 2656 1075 2415 
Q 984 2175 984 1722 
L 984 0 
L 422 0 
z
" transform="scale(0.015625)"/>
       <path id="ArialMT-73" d="M 197 991 
L 753 1078 
Q 800 744 1014 566 
Q 1228 388 1613 388 
Q 2000 388 2187 545 
Q 2375 703 2375 916 
Q 2375 1106 2209 1216 
Q 2094 1291 1634 1406 
Q 1016 1563 777 1677 
Q 538 1791 414 1992 
Q 291 2194 291 2438 
Q 291 2659 392 2848 
Q 494 3038 669 3163 
Q 800 3259 1026 3326 
Q 1253 3394 1513 3394 
Q 1903 3394 2198 3281 
Q 2494 3169 2634 2976 
Q 2775 2784 2828 2463 
L 2278 2388 
Q 2241 2644 2061 2787 
Q 1881 2931 1553 2931 
Q 1166 2931 1000 2803 
Q 834 2675 834 2503 
Q 834 2394 903 2306 
Q 972 2216 1119 2156 
Q 1203 2125 1616 2013 
Q 2213 1853 2448 1751 
Q 2684 1650 2818 1456 
Q 2953 1263 2953 975 
Q 2953 694 2789 445 
Q 2625 197 2315 61 
Q 2006 -75 1616 -75 
Q 969 -75 630 194 
Q 291 463 197 991 
z
" transform="scale(0.015625)"/>
       <path id="ArialMT-2f" d="M 0 -78 
L 1328 4659 
L 1778 4659 
L 453 -78 
L 0 -78 
z
" transform="scale(0.015625)"/>
      </defs>
      <use xlink:href="#ArialMT-76"/>
      <use xlink:href="#ArialMT-20" transform="translate(50 0)"/>
      <use xlink:href="#ArialMT-72" transform="translate(77.783203 0)"/>
      <use xlink:href="#ArialMT-6d" transform="translate(111.083984 0)"/>
      <use xlink:href="#ArialMT-73" transform="translate(194.384766 0)"/>
      <use xlink:href="#ArialMT-20" transform="translate(244.384766 0)"/>
      <use xlink:href="#ArialMT-5b" transform="translate(272.167969 0)"/>
      <use xlink:href="#ArialMT-6d" transform="translate(299.951172 0)"/>
      <use xlink:href="#ArialMT-6d" transform="translate(383.251953 0)"/>
      <use xlink:href="#ArialMT-2f" transform="translate(466.552734 0)"/>
      <use xlink:href="#ArialMT-73" transform="translate(494.335938 0)"/>
      <use xlink:href="#ArialMT-5d" transform="translate(544.335938 0)"/>
     </g>
    </g>
   </g>
   <g id="line2d_33">
    <path d="M 16 118.870274 
L 16.199573 27.407407 
L 16.232835 32.992929 
L 16.432408 84.625974 
L 16.765029 109.815915 
L 16.864815 109.316217 
L 17.064388 115.436143 
L 17.130912 116.105048 
L 17.164175 115.802838 
L 17.197437 115.398508 
L 17.230699 115.62162 
L 17.496796 118.245509 
L 17.530058 118.215783 
L 17.663106 117.503333 
L 17.729631 118.372587 
L 17.796155 117.884965 
L 17.962466 118.952083 
L 17.995728 118.893792 
L 18.128776 118.434679 
L 18.162038 118.515884 
L 18.328349 119.237967 
L 18.428135 119.171773 
L 18.527922 119.113579 
L 18.561184 119.437764 
L 18.594446 119.385279 
L 18.66097 118.905123 
L 18.694233 119.252628 
L 18.794019 119.532798 
L 18.827281 119.484665 
L 18.893805 119.41651 
L 19.060116 119.182945 
L 19.226427 119.664712 
L 19.326213 119.374626 
L 19.359475 119.469143 
L 19.392737 119.643377 
L 19.459262 118.406328 
L 19.525786 119.00369 
L 19.559048 119.122904 
L 19.625572 119.696646 
L 19.692096 119.5667 
L 19.791883 119.560317 
L 20.024718 119.845831 
L 20.091242 119.558232 
L 20.124504 119.702686 
L 20.157766 119.840558 
L 20.224291 119.698914 
L 20.290815 119.415177 
L 20.324077 119.038542 
L 20.357339 119.330121 
L 20.390601 119.926981 
L 20.490388 119.771588 
L 20.556912 119.792546 
L 20.623436 119.393544 
L 20.656698 119.694478 
L 20.68996 119.832419 
L 20.789747 119.786351 
L 20.856271 119.803173 
L 20.889533 119.653859 
L 20.956057 119.756922 
L 20.989319 119.846906 
L 21.022582 119.806199 
L 21.188892 118.451397 
L 21.255417 118.774395 
L 21.288679 118.80187 
L 21.421727 119.746928 
L 21.488251 119.730022 
L 21.521514 119.941167 
L 21.554776 119.718698 
L 21.588038 119.503206 
L 21.6213 119.533907 
L 21.654562 119.840515 
L 21.687824 119.356208 
L 21.721086 119.180626 
L 21.820873 119.948038 
L 21.854135 119.511569 
L 21.920659 104.507626 
L 21.953921 109.792962 
L 22.08697 119.483365 
L 22.120232 119.520898 
L 22.153494 119.364809 
L 22.186756 119.532974 
L 22.286543 119.93984 
L 22.353067 119.729862 
L 22.452853 119.375864 
L 22.486115 119.50475 
L 22.519377 119.844347 
L 22.585902 117.090559 
L 22.619164 118.362249 
L 22.752212 119.959149 
L 22.785475 119.962302 
L 22.851999 118.005282 
L 22.885261 118.481144 
L 22.951785 119.975624 
L 23.018309 119.636445 
L 23.051572 119.571851 
L 23.151358 119.938392 
L 23.18462 119.834619 
L 23.251144 117.816957 
L 23.284406 119.247673 
L 23.417455 119.798441 
L 23.450717 119.722455 
L 23.583766 119.019018 
L 23.617028 119.522747 
L 23.65029 119.482527 
L 23.716814 112.568959 
L 23.750076 114.128307 
L 23.849863 119.477907 
L 23.883125 119.107231 
L 23.916387 118.862535 
L 23.949649 119.343567 
L 23.982911 119.662526 
L 24.049435 119.586247 
L 24.082698 119.471656 
L 24.11596 119.689212 
L 24.149222 119.628209 
L 24.182484 119.931767 
L 24.249008 118.987875 
L 24.28227 119.674349 
L 24.348795 119.7692 
L 24.382057 119.64515 
L 24.448581 118.934508 
L 24.481843 119.195483 
L 24.515105 119.503121 
L 24.58163 105.503116 
L 24.614892 109.111459 
L 24.714678 119.560595 
L 24.74794 119.437771 
L 24.781202 119.090381 
L 24.880989 119.169 
L 25.047299 119.918392 
L 25.113824 119.231933 
L 25.180348 119.668532 
L 25.21361 119.694416 
L 25.246872 119.87248 
L 25.313396 119.758635 
L 25.379921 119.511349 
L 25.446445 110.890393 
L 25.512969 117.786586 
L 25.67928 119.956347 
L 25.745804 118.883728 
L 25.779066 119.544619 
L 25.812328 119.638423 
L 25.878853 118.60565 
L 25.912115 118.847759 
L 26.011901 119.829139 
L 26.045163 119.432029 
L 26.078425 119.173452 
L 26.111688 119.562725 
L 26.14495 119.65063 
L 26.244736 119.00264 
L 26.277998 119.333181 
L 26.31126 117.155041 
L 26.377785 118.55501 
L 26.411047 118.45892 
L 26.477571 119.67683 
L 26.544095 119.38426 
L 26.643882 119.791945 
L 26.677144 119.77769 
L 26.743668 119.248518 
L 26.77693 119.612265 
L 26.876717 119.912283 
L 26.909979 119.820382 
L 26.976503 118.888498 
L 27.009765 119.148684 
L 27.043027 119.723536 
L 27.076289 119.45348 
L 27.142814 119.821443 
L 27.209338 116.234971 
L 27.342386 119.643632 
L 27.375648 119.805477 
L 27.408911 119.646714 
L 27.475435 119.207378 
L 27.508697 119.596197 
L 27.541959 119.708025 
L 27.608483 118.678296 
L 27.641745 117.532833 
L 27.675008 118.934266 
L 27.741532 119.7559 
L 27.774794 119.449053 
L 27.841318 112.685642 
L 27.87458 114.012304 
L 27.941105 119.791255 
L 28.007629 119.278942 
L 28.074153 116.890687 
L 28.107415 118.238395 
L 28.273726 119.883084 
L 28.306988 119.740419 
L 28.406774 119.574948 
L 28.506561 117.996276 
L 28.539823 118.840196 
L 28.639609 119.789853 
L 28.672872 119.652579 
L 28.706134 118.546166 
L 28.772658 118.943049 
L 28.905706 119.428826 
L 28.938969 118.723588 
L 29.005493 115.021876 
L 29.038755 118.940216 
L 29.138541 119.829355 
L 29.171803 119.614428 
L 29.205066 119.602882 
L 29.238328 119.713159 
L 29.338114 112.316199 
L 29.404638 117.070967 
L 29.537687 119.942129 
L 29.604211 119.211195 
L 29.670735 119.395073 
L 29.703998 117.713223 
L 29.770522 119.883372 
L 29.837046 117.874693 
L 29.870308 117.894193 
L 29.936832 119.846181 
L 30.003357 119.445265 
L 30.069881 119.300104 
L 30.103143 119.430393 
L 30.136405 119.882999 
L 30.236192 119.855473 
L 30.269454 119.887828 
L 30.302716 119.488208 
L 30.36924 119.618878 
L 30.435764 119.740409 
L 30.469027 119.592611 
L 30.568813 117.270333 
L 30.602075 117.480908 
L 30.635337 119.65885 
L 30.701861 118.493675 
L 30.735124 118.639542 
L 30.83491 119.750751 
L 30.868172 119.597984 
L 30.901434 119.783695 
L 30.934696 119.447863 
L 30.967958 119.569341 
L 31.034483 119.389999 
L 31.067745 119.872161 
L 31.134269 119.303296 
L 31.167531 119.031108 
L 31.200793 119.650029 
L 31.267318 119.904749 
L 31.30058 119.668038 
L 31.400366 118.709505 
L 31.46689 108.065496 
L 31.500153 117.590284 
L 31.533415 119.539792 
L 31.599939 116.990802 
L 31.633201 119.276781 
L 31.666463 119.892422 
L 31.699725 119.2608 
L 31.732987 118.954063 
L 31.799512 119.116072 
L 31.832774 119.082841 
L 31.899298 119.732377 
L 31.999085 119.712443 
L 32.032347 119.369359 
L 32.098871 119.660479 
L 32.132133 119.601121 
L 32.165395 119.871382 
L 32.231919 119.80374 
L 32.265182 117.600362 
L 32.331706 103.812553 
L 32.364968 115.937178 
L 32.498016 119.442446 
L 32.664327 119.676661 
L 32.697589 119.449313 
L 32.730851 119.665266 
L 32.830638 119.888507 
L 32.8639 119.780461 
L 32.930424 119.135585 
L 32.963686 119.611918 
L 32.996948 119.817943 
L 33.030211 119.621976 
L 33.096735 119.230748 
L 33.129997 119.886562 
L 33.196521 115.386207 
L 33.229783 118.457247 
L 33.263045 119.695722 
L 33.32957 118.526435 
L 33.429356 119.71639 
L 33.49588 119.258836 
L 33.529143 119.374935 
L 33.562405 119.920183 
L 33.628929 119.523 
L 33.662191 119.571148 
L 33.79524 118.395951 
L 33.895026 119.882071 
L 33.928288 119.830594 
L 33.96155 119.0717 
L 33.994812 119.518178 
L 34.061337 110.625118 
L 34.094599 117.613723 
L 34.227647 119.89186 
L 34.260909 119.188612 
L 34.327434 119.7442 
L 34.360696 119.792195 
L 34.42722 118.661061 
L 34.460482 119.147879 
L 34.527006 119.701989 
L 34.593531 119.686691 
L 34.660055 119.078247 
L 34.693317 119.350536 
L 34.759841 119.667373 
L 34.793103 119.45704 
L 34.826366 119.299832 
L 34.859628 119.488278 
L 34.926152 110.961898 
L 34.959414 117.39544 
L 35.025938 119.784203 
L 35.092463 118.722647 
L 35.158987 119.943794 
L 35.258773 119.891173 
L 35.292035 119.835911 
L 35.391822 119.187291 
L 35.425084 119.321144 
L 35.458346 119.643635 
L 35.52487 119.507668 
L 35.558132 119.353049 
L 35.591395 119.857267 
L 35.624657 118.866146 
L 35.691181 119.048527 
L 35.724443 118.557062 
L 35.790967 116.326413 
L 35.824229 119.10905 
L 35.957278 119.726215 
L 35.99054 119.568472 
L 36.023802 119.614405 
L 36.123589 119.886328 
L 36.190113 119.379206 
L 36.256637 119.566507 
L 36.389686 119.841269 
L 36.422948 119.341455 
L 36.489472 119.609749 
L 36.589258 119.322351 
L 36.655783 118.524056 
L 36.689045 119.3316 
L 36.755569 119.747125 
L 36.788831 119.146622 
L 36.855356 119.584117 
L 36.988404 119.92039 
L 37.021666 119.90136 
L 37.08819 119.698603 
L 37.154715 119.753623 
L 37.187977 119.955942 
L 37.254501 119.696182 
L 37.287763 119.847235 
L 37.321025 119.702534 
L 37.520598 118.829014 
L 37.587122 119.723404 
L 37.653647 119.365222 
L 37.753433 119.953628 
L 37.786695 119.749259 
L 37.819957 119.738315 
L 37.886482 119.966874 
L 37.919744 119.822208 
L 37.953006 119.654575 
L 37.986268 119.915559 
L 38.01953 119.703608 
L 38.052792 119.805594 
L 38.086054 119.711785 
L 38.285627 119.060492 
L 38.385413 118.556049 
L 38.4852 119.604484 
L 38.518462 119.52815 
L 38.618248 119.815561 
L 38.651511 119.805615 
L 38.851083 119.935919 
L 38.884345 119.640397 
L 38.984132 119.668461 
L 39.017394 119.926973 
L 39.050656 119.547013 
L 39.083918 119.670434 
L 39.150442 119.208465 
L 39.183705 119.27585 
L 39.250229 117.676307 
L 39.283491 118.933814 
L 39.316753 119.827843 
L 39.383277 118.815135 
L 39.41654 119.67135 
L 39.449802 119.611045 
L 39.58285 119.843804 
L 39.616112 119.831034 
L 39.682637 118.802391 
L 39.749161 119.649767 
L 39.782423 119.616906 
L 39.882209 119.836985 
L 39.981996 119.340524 
L 40.04852 113.471106 
L 40.081782 117.366242 
L 40.181569 119.588977 
L 40.214831 119.400972 
L 40.248093 118.858846 
L 40.281355 119.325971 
L 40.314617 119.693619 
L 40.381141 119.319974 
L 40.447666 119.880282 
L 40.51419 119.769978 
L 40.547452 119.652954 
L 40.580714 119.888385 
L 40.613976 119.768197 
L 40.647238 119.854564 
L 40.780287 119.456179 
L 40.813549 119.889167 
L 40.846811 119.391723 
L 40.913335 115.934464 
L 40.946597 117.653019 
L 41.112908 119.669085 
L 41.14617 119.825883 
L 41.179432 119.494963 
L 41.478792 119.892294 
L 41.545316 119.369739 
L 41.61184 119.709187 
L 41.678364 119.956511 
L 41.711626 119.772311 
L 41.778151 118.848756 
L 41.844675 119.42273 
L 41.911199 119.921708 
L 41.977724 118.549983 
L 42.010986 119.331102 
L 42.110772 119.854726 
L 42.144034 119.815916 
L 42.177296 119.929522 
L 42.243821 119.904562 
L 42.410131 119.640488 
L 42.443393 119.622834 
L 42.476655 119.801129 
L 42.54318 119.615239 
L 42.576442 119.089358 
L 42.642966 112.056865 
L 42.676228 115.825889 
L 42.809277 119.641385 
L 42.842539 119.440403 
L 42.875801 119.800312 
L 43.00885 119.541037 
L 43.042112 119.693256 
L 43.075374 119.871188 
L 43.108636 119.523136 
L 43.274947 119.745885 
L 43.308209 119.679015 
L 43.341471 119.917216 
L 43.374733 119.713374 
L 43.441257 119.232064 
L 43.507782 114.391335 
L 43.541044 117.128883 
L 43.607568 119.824139 
L 43.674092 119.745169 
L 43.707354 119.398672 
L 43.740616 119.756641 
L 43.773879 119.887567 
L 43.807141 119.873052 
L 43.873665 119.404615 
L 43.940189 119.450786 
L 44.073238 119.90279 
L 44.1065 119.626767 
L 44.206286 119.670182 
L 44.239548 119.677917 
L 44.306073 119.276378 
L 44.372597 115.198879 
L 44.405859 117.04751 
L 44.472383 119.947145 
L 44.538908 119.370376 
L 44.57217 119.016448 
L 44.605432 119.353077 
L 44.671956 119.88441 
L 44.73848 119.669583 
L 44.771742 119.323185 
L 44.838267 119.724704 
L 44.938053 119.552056 
L 45.137626 119.887324 
L 45.237412 117.642208 
L 45.270674 118.416356 
L 45.303937 119.549129 
L 45.403723 119.202001 
L 45.570034 119.783436 
L 45.636558 118.857699 
L 45.66982 119.557721 
L 45.802868 119.959025 
L 45.902655 119.6568 
L 45.935917 119.848344 
L 45.969179 119.557267 
L 46.002441 119.577151 
L 46.035703 119.756286 
L 46.068966 119.619967 
L 46.102228 119.062609 
L 46.168752 119.595688 
L 46.202014 119.857038 
L 46.268538 119.701129 
L 46.3018 119.661992 
L 46.434849 119.936092 
L 46.501373 119.683999 
L 46.567897 119.894552 
L 46.700946 119.908987 
L 46.76747 119.54893 
L 46.833995 119.649647 
L 46.867257 119.88871 
L 46.900519 119.745434 
L 46.967043 119.007875 
L 47.000305 119.342266 
L 47.100092 119.883063 
L 47.133354 119.668779 
L 47.166616 119.369649 
L 47.23314 119.707762 
L 47.299664 119.82439 
L 47.332926 119.684306 
L 47.366189 119.566326 
L 47.399451 119.743673 
L 47.432713 119.842161 
L 47.499237 119.768218 
L 47.565761 119.547552 
L 47.599023 119.776813 
L 47.665548 119.822242 
L 47.732072 119.926723 
L 47.831858 119.264175 
L 47.898383 119.820757 
L 47.964907 119.611947 
L 48.097955 119.98127 
L 48.131218 119.934084 
L 48.231004 119.74576 
L 48.264266 119.915692 
L 48.33079 119.984103 
L 48.364052 119.910409 
L 48.430577 119.796968 
L 48.463839 119.885982 
L 48.530363 119.968434 
L 48.63015 119.072424 
L 48.696674 119.599573 
L 48.763198 119.908987 
L 48.829722 119.861783 
L 48.896247 119.243336 
L 48.929509 119.459094 
L 48.962771 119.790817 
L 49.062557 119.735547 
L 49.195606 119.947132 
L 49.26213 119.80209 
L 49.295392 119.813696 
L 49.328654 119.942506 
L 49.361916 119.661769 
L 49.395179 119.638324 
L 49.428441 119.760631 
L 49.494965 118.194988 
L 49.528227 118.613136 
L 49.661276 119.881426 
L 49.7278 119.617977 
L 49.761062 119.188901 
L 49.794324 119.42763 
L 49.927373 119.899302 
L 50.259994 119.762171 
L 50.293256 119.886427 
L 50.35978 116.826382 
L 50.393042 117.593432 
L 50.492829 119.954703 
L 50.526091 119.892285 
L 50.592615 119.734233 
L 50.625877 119.026262 
L 50.692402 119.81466 
L 50.725664 119.587998 
L 50.792188 119.822292 
L 50.925236 119.975038 
L 50.958499 119.795082 
L 51.058285 119.846561 
L 51.158071 119.933215 
L 51.224596 119.183834 
L 51.29112 119.697721 
L 51.324382 119.684596 
L 51.424168 119.896129 
L 51.457431 119.768646 
L 51.557217 119.056175 
L 51.590479 119.30988 
L 51.690265 119.924841 
L 51.723528 119.887794 
L 51.823314 119.93835 
L 51.856576 119.879054 
L 51.889838 119.784734 
L 51.9231 119.858709 
L 51.956363 119.983079 
L 52.022887 119.91738 
L 52.056149 119.881807 
L 52.122673 119.628234 
L 52.155935 119.738316 
L 52.288984 119.975929 
L 52.322246 119.928202 
L 52.38877 119.559015 
L 52.422032 119.89184 
L 52.455294 119.86657 
L 52.488557 119.922132 
L 52.588343 119.990323 
L 52.688129 119.924176 
L 52.754654 119.845019 
L 52.821178 119.979309 
L 52.987489 119.706528 
L 53.020751 119.73274 
L 53.153799 119.994308 
L 53.187061 119.943554 
L 53.220323 119.837902 
L 53.286848 119.976241 
L 53.586207 119.979085 
L 53.652731 119.809127 
L 53.685993 119.931042 
L 53.719255 119.969131 
L 53.752518 119.866902 
L 53.852304 119.855786 
L 54.018615 119.993487 
L 54.251449 119.955158 
L 54.317974 119.984519 
L 54.351236 119.90862 
L 54.650595 119.928615 
L 54.683857 119.716763 
L 54.750381 119.924077 
L 54.949954 119.941473 
L 54.983216 119.840719 
L 55.049741 119.915011 
L 55.282576 119.922199 
L 55.382362 119.924389 
L 55.415624 119.978037 
L 55.448886 119.951322 
L 55.51541 119.70082 
L 55.581935 119.783398 
L 55.648459 119.926423 
L 55.681721 119.898226 
L 55.714983 119.813185 
L 55.781507 119.932121 
L 56.147391 119.845915 
L 56.280439 119.979194 
L 56.313702 119.927625 
L 56.380226 119.657296 
L 56.413488 119.742094 
L 56.44675 119.762359 
L 56.513274 119.992423 
L 56.579799 119.96409 
L 56.779371 119.876916 
L 56.91242 119.986987 
L 57.145255 119.914026 
L 57.178517 119.903408 
L 57.245041 119.580577 
L 57.278303 119.895476 
L 57.37809 119.93562 
L 57.411352 119.91652 
L 57.577662 119.742605 
L 57.710711 119.887518 
L 57.777235 119.821059 
L 57.810497 119.918583 
L 57.910284 119.99259 
L 57.943546 119.959257 
L 58.043332 119.770601 
L 58.109857 118.893899 
L 58.143119 119.875586 
L 58.176381 119.738728 
L 58.242905 119.916698 
L 58.309429 119.961979 
L 58.342691 119.90514 
L 58.442478 119.777054 
L 58.575526 119.950082 
L 58.775099 119.984571 
L 58.974672 119.659015 
L 59.007934 119.951416 
L 59.10772 119.933863 
L 59.40708 119.888532 
L 59.440342 119.831493 
L 59.473604 119.955818 
L 59.639915 119.96747 
L 59.839487 119.62501 
L 59.972536 119.965719 
L 60.50473 119.971701 
L 60.637778 119.970046 
L 60.704303 119.844302 
L 60.737565 119.992755 
L 61.036924 119.882027 
L 61.203235 119.992727 
L 61.469332 119.85026 
L 61.502594 119.938008 
L 61.535856 119.728329 
L 61.569118 119.628943 
L 61.668904 119.981466 
L 61.702167 119.976139 
L 62.134574 119.924524 
L 62.167836 119.967598 
L 62.201099 119.856682 
L 62.234361 119.847647 
L 62.367409 119.950886 
L 62.433933 119.724411 
L 62.467196 119.885169 
L 62.700031 119.947264 
L 62.766555 119.501856 
L 62.799817 119.88208 
L 62.833079 119.855907 
L 62.866341 119.939288 
L 63.065914 119.912601 
L 63.099176 119.868502 
L 63.1657 119.955787 
L 63.198962 119.984243 
L 63.232225 119.92773 
L 63.265487 119.77207 
L 63.332011 119.943766 
L 63.431797 119.763138 
L 63.531584 119.995274 
L 63.564846 119.966035 
L 63.63137 119.845032 
L 63.664632 119.982425 
L 63.864205 119.952171 
L 63.963991 119.903926 
L 64.030516 119.941472 
L 64.09704 119.445391 
L 64.163564 119.719138 
L 64.196826 119.993486 
L 64.296613 119.975573 
L 64.462923 119.818666 
L 64.496186 119.595427 
L 64.56271 119.879465 
L 64.72902 119.960043 
L 64.795545 119.891336 
L 64.828807 119.933801 
L 64.862069 119.96355 
L 64.895331 119.895724 
L 64.928593 119.798368 
L 64.995117 119.899592 
L 65.128166 119.83844 
L 65.161428 119.785188 
L 65.19469 119.887033 
L 65.261215 119.981979 
L 65.294477 119.834189 
L 65.361001 117.706412 
L 65.394263 118.977507 
L 65.460787 119.954553 
L 65.527312 119.915668 
L 65.593836 119.875531 
L 65.726884 119.969794 
L 65.760146 119.941773 
L 65.826671 119.618721 
L 65.859933 119.973717 
L 65.893195 119.719346 
L 65.959719 119.884638 
L 65.992981 119.805394 
L 66.059506 119.780918 
L 66.092768 119.83726 
L 66.159292 119.888731 
L 66.192554 119.831229 
L 66.225816 119.599254 
L 66.292341 119.849105 
L 66.624962 119.903557 
L 66.691486 118.365757 
L 66.724748 119.258383 
L 66.857797 119.89842 
L 66.891059 119.832987 
L 67.024107 119.948103 
L 67.090632 119.590186 
L 67.157156 119.828255 
L 67.389991 119.965435 
L 67.423253 119.98024 
L 67.523039 119.095166 
L 67.556301 118.406751 
L 67.589564 119.198534 
L 67.656088 119.918798 
L 67.722612 119.882481 
L 67.888923 119.960069 
L 68.055233 119.706364 
L 68.088496 119.830593 
L 68.121758 119.952094 
L 68.188282 119.815259 
L 68.288068 119.975933 
L 68.354593 119.821876 
L 68.421117 118.827679 
L 68.454379 119.556015 
L 68.587428 119.962151 
L 68.720476 119.818568 
L 68.753738 119.879849 
L 68.787 119.776838 
L 68.853525 119.741719 
L 68.886787 119.889392 
L 68.986573 119.835789 
L 69.152884 119.932958 
L 69.219408 119.899005 
L 69.285932 118.039637 
L 69.352457 119.083762 
L 69.418981 119.700399 
L 69.485505 117.830968 
L 69.518767 118.669387 
L 69.651816 119.911787 
L 69.71834 119.763785 
L 69.751602 119.854393 
L 69.784864 119.904281 
L 69.818126 119.772702 
L 69.884651 119.769262 
L 69.917913 119.924701 
L 69.951175 119.902746 
L 70.017699 119.599753 
L 70.050961 119.78749 
L 70.084223 119.877972 
L 70.150748 119.010173 
L 70.18401 119.609936 
L 70.283796 119.914777 
L 70.35032 119.552314 
L 70.416845 119.728016 
L 70.549893 119.179894 
L 70.583155 119.39276 
L 70.716204 119.900871 
L 70.81599 119.81963 
L 70.849252 119.958428 
L 71.015563 119.357224 
L 71.048825 119.731983 
L 71.115349 119.712181 
L 71.148612 119.570056 
L 71.181874 119.883396 
L 71.215136 119.766071 
L 71.248398 119.822607 
L 71.28166 119.249486 
L 71.381446 119.271541 
L 71.414709 118.916011 
L 71.447971 119.429373 
L 71.481233 119.874913 
L 71.581019 119.806048 
L 71.647543 119.647723 
L 71.680806 119.806012 
L 71.714068 119.832751 
L 71.813854 118.871502 
L 71.880378 119.290014 
L 71.980165 119.826516 
L 72.046689 119.719804 
L 72.179738 119.837844 
L 72.279524 119.746689 
L 72.37931 119.90299 
L 72.445835 119.37771 
L 72.512359 119.716536 
L 72.545621 119.874811 
L 72.612145 119.724423 
L 72.67867 119.840494 
L 72.745194 119.352056 
L 72.778456 119.712256 
L 72.811718 119.907341 
L 72.878242 119.702497 
L 72.944767 119.832929 
L 72.978029 119.809484 
L 73.011291 119.702674 
L 73.044553 119.734228 
L 73.077815 119.924036 
L 73.111077 119.562828 
L 73.144339 118.953162 
L 73.210864 119.607601 
L 73.377174 119.99007 
L 73.410436 119.912794 
L 73.476961 119.763199 
L 73.543485 118.053424 
L 73.576747 118.762821 
L 73.643271 119.810372 
L 73.709796 119.694659 
L 73.77632 119.986916 
L 73.842844 119.889671 
L 73.94263 119.25547 
L 74.009155 119.283547 
L 74.075679 119.97659 
L 74.142203 119.786391 
L 74.24199 119.855395 
L 74.308514 119.494229 
L 74.375038 118.927567 
L 74.4083 117.971748 
L 74.441562 118.525675 
L 74.541349 119.893307 
L 74.574611 119.886781 
L 74.641135 119.861871 
L 74.774184 119.588045 
L 74.87397 119.952876 
L 74.907232 119.793075 
L 75.007019 119.773069 
L 75.173329 119.468986 
L 75.206591 119.578045 
L 75.273116 115.13481 
L 75.306378 116.596477 
L 75.406164 119.956683 
L 75.439426 119.875304 
L 75.505951 119.727684 
L 75.539213 119.897278 
L 75.572475 119.921227 
L 75.638999 119.257885 
L 75.672261 119.452672 
L 75.772048 119.8469 
L 75.80531 119.793887 
L 75.871834 119.97238 
L 75.938358 119.862279 
L 76.104669 119.422455 
L 76.137931 118.287584 
L 76.204455 119.622317 
L 76.370766 119.934775 
L 76.404028 119.835123 
L 76.537077 119.880372 
L 76.570339 119.990249 
L 76.603601 119.678059 
L 76.670125 119.808934 
L 76.803174 119.855787 
L 76.836436 119.960445 
L 76.90296 119.85988 
L 76.936222 119.815933 
L 77.002746 118.195951 
L 77.036009 118.593931 
L 77.169057 119.893191 
L 77.302106 119.478428 
L 77.36863 119.930081 
L 77.468416 119.906009 
L 77.634727 119.907822 
L 77.8343 119.328735 
L 77.867562 118.948071 
L 77.900824 119.240289 
L 77.934086 119.947155 
L 78.033872 119.810049 
L 78.067135 119.952883 
L 78.166921 119.901566 
L 78.200183 119.982454 
L 78.266707 119.912332 
L 78.333232 119.791884 
L 78.366494 119.745241 
L 78.399756 119.945209 
L 78.499542 119.868185 
L 78.632591 119.903401 
L 78.665853 119.728037 
L 78.732377 119.78219 
L 78.93195 119.950108 
L 78.965212 119.97506 
L 78.998474 119.888275 
L 79.131523 119.853561 
L 79.264571 119.995846 
L 79.297833 119.958753 
L 79.497406 119.830979 
L 79.56393 119.950101 
L 79.630455 119.876586 
L 79.86329 119.902195 
L 79.896552 119.803637 
L 79.929814 119.900902 
L 80.062862 119.989461 
L 80.229173 119.823044 
L 80.262435 119.948199 
L 80.328959 119.817473 
L 80.49527 119.73225 
L 80.528532 119.962691 
L 80.628319 119.888551 
L 80.761367 119.982184 
L 80.927678 119.885079 
L 80.96094 119.912867 
L 80.994202 119.960657 
L 81.027464 119.845506 
L 81.160513 119.862179 
L 81.227037 119.955636 
L 81.293561 119.661604 
L 81.326823 119.767958 
L 81.493134 119.97903 
L 81.626182 119.970569 
L 81.859017 119.958611 
L 82.191639 119.801387 
L 82.391211 119.960591 
L 82.757095 119.967645 
L 82.823619 119.496314 
L 82.856881 118.928351 
L 82.890143 119.312708 
L 82.956668 119.989439 
L 83.023192 119.860211 
L 83.355813 119.939034 
L 83.522124 119.889739 
L 83.555386 119.840843 
L 83.588648 119.941216 
L 83.754959 119.994851 
L 83.888007 119.709749 
L 83.921269 119.987624 
L 84.021056 119.897394 
L 84.054318 119.989499 
L 84.120842 119.876416 
L 84.220629 119.98669 
L 84.253891 119.856162 
L 84.287153 119.815286 
L 84.320415 119.978551 
L 84.386939 119.776068 
L 84.653036 119.957003 
L 84.686298 119.909098 
L 84.752823 119.154918 
L 84.786085 119.817987 
L 84.852609 119.918037 
L 84.885871 119.855502 
L 85.218493 119.910501 
L 85.251755 119.788711 
L 85.285017 119.825122 
L 85.418065 119.996706 
L 85.517852 119.843315 
L 85.551114 119.940501 
L 85.617638 119.244399 
L 85.6509 119.799183 
L 85.783949 119.926448 
L 85.916997 119.949695 
L 86.083308 119.975674 
L 86.149832 119.851973 
L 86.183094 119.945955 
L 86.415929 119.853127 
L 86.482453 118.809093 
L 86.515716 119.754748 
L 86.815075 119.95267 
L 86.848337 119.896142 
L 86.914861 119.994383 
L 86.981385 119.782596 
L 87.014648 119.676024 
L 87.04791 119.894991 
L 87.180958 119.98607 
L 87.347269 119.734715 
L 87.380531 119.994227 
L 87.447055 119.869658 
L 87.513579 119.906934 
L 87.546842 119.986789 
L 87.613366 119.927212 
L 88.079036 119.927401 
L 88.14556 119.801018 
L 88.178822 119.871179 
L 88.345133 119.970797 
L 89.775404 119.950878 
L 89.808666 119.985332 
L 89.841929 119.925468 
L 89.875191 119.882784 
L 89.908453 119.98897 
L 89.941715 119.947693 
L 90.440647 119.972616 
L 90.606958 119.949817 
L 90.64022 119.993545 
L 90.673482 119.966683 
L 90.740006 119.767972 
L 90.80653 119.82692 
L 90.906317 119.996316 
L 90.939579 119.987825 
L 91.205676 119.929543 
L 91.371987 119.945467 
L 91.438511 119.902239 
L 91.471773 119.945749 
L 91.538297 119.956577 
L 91.604821 119.53869 
L 91.671346 119.739658 
L 91.837656 119.981512 
L 92.037229 119.903124 
L 92.170278 119.973991 
L 92.303326 119.870635 
L 92.336588 119.901864 
L 92.36985 119.948771 
L 92.403113 119.896788 
L 92.469637 118.76776 
L 92.502899 119.563073 
L 92.602685 119.994269 
L 92.635948 119.858567 
L 92.868782 119.899683 
L 92.902045 119.928272 
L 92.935307 119.860724 
L 93.068355 119.861169 
L 93.201404 119.953089 
L 93.30119 119.060613 
L 93.334452 118.405764 
L 93.367714 119.353918 
L 93.500763 119.971572 
L 93.534025 119.855382 
L 93.600549 119.961841 
L 93.633811 119.956934 
L 93.700336 119.679123 
L 93.733598 119.858269 
L 93.866646 119.922868 
L 93.933171 119.80496 
L 93.999695 119.934488 
L 94.099481 119.878777 
L 94.166005 119.067479 
L 94.199268 118.467954 
L 94.23253 119.318892 
L 94.265792 119.954667 
L 94.365578 119.883584 
L 94.498627 119.95574 
L 94.764724 119.913145 
L 94.897772 119.889493 
L 95.030821 119.893245 
L 95.064083 119.651368 
L 95.130607 119.899595 
L 95.197132 119.92531 
L 95.296918 119.966492 
L 95.33018 119.880152 
L 95.396704 119.963583 
L 95.629539 119.918233 
L 95.762588 119.992186 
L 95.928898 119.529305 
L 95.962161 119.746595 
L 95.995423 119.996289 
L 96.095209 119.913625 
L 96.128471 119.860583 
L 96.194995 119.936252 
L 96.361306 119.973939 
L 96.494355 119.891366 
L 96.72719 119.861812 
L 96.760452 119.987001 
L 96.793714 119.802513 
L 96.860238 119.939833 
L 97.059811 119.941426 
L 97.192859 119.99059 
L 97.325908 119.887502 
L 97.458956 119.994582 
L 97.625267 119.65496 
L 97.658529 119.400084 
L 97.691791 119.661787 
L 97.725053 119.954365 
L 97.82484 119.918629 
L 98.024413 119.99519 
L 98.190723 119.919064 
L 98.490082 119.882392 
L 98.523345 119.75006 
L 98.589869 119.907671 
L 98.722917 119.972173 
L 98.855966 119.956903 
L 98.989014 119.948481 
L 99.122063 119.991298 
L 99.354898 119.802208 
L 99.454684 119.965414 
L 99.487946 119.943733 
L 99.820568 119.952267 
L 99.920354 119.970671 
L 100.119927 119.933036 
L 100.252975 119.720746 
L 100.286237 119.810316 
L 100.419286 119.965093 
L 100.618859 119.968753 
L 100.818431 119.977857 
L 101.018004 119.879874 
L 101.051266 119.529407 
L 101.117791 119.917715 
L 101.184315 119.985913 
L 101.250839 119.945584 
L 101.41715 119.967497 
L 101.58346 119.965886 
L 101.849558 119.98173 
L 101.916082 119.561754 
L 101.949344 119.723149 
L 102.082392 119.954075 
L 102.215441 119.933861 
L 102.714373 119.904954 
L 102.780897 119.27999 
L 102.814159 119.527877 
L 102.947208 119.978967 
L 103.213305 119.980614 
L 103.246567 119.99242 
L 103.313091 119.850669 
L 103.346353 119.968056 
L 103.579188 119.765665 
L 103.645713 119.201896 
L 103.678975 119.485225 
L 103.812023 119.989942 
L 104.07812 119.902679 
L 104.244431 119.99065 
L 104.310955 119.878612 
L 104.377479 119.972949 
L 104.477266 119.872648 
L 104.510528 119.410371 
L 104.577052 119.961917 
L 104.743363 119.991864 
L 104.876411 119.942776 
L 104.976198 119.981668 
L 105.00946 119.956035 
L 105.47513 119.942269 
L 105.674702 119.997094 
L 105.841013 119.974278 
L 106.173634 119.876486 
L 106.240159 119.736306 
L 106.273421 119.77339 
L 106.406469 119.959772 
L 106.57278 119.958173 
L 107.071712 119.813619 
L 107.104974 119.756696 
L 107.138236 119.79494 
L 107.20476 119.997484 
L 107.271285 119.976965 
L 107.50412 119.997085 
L 107.637168 119.972618 
L 107.836741 119.972139 
L 108.003052 119.941919 
L 108.235886 119.997171 
L 108.60177 119.96214 
L 108.668294 119.973208 
L 108.701556 119.916372 
L 108.768081 119.678166 
L 108.801343 119.721222 
L 108.901129 119.964759 
L 108.934391 119.955839 
L 109.133964 119.927121 
L 109.267013 119.942781 
L 109.400061 119.995833 
L 109.599634 119.794035 
L 109.632896 119.751487 
L 109.666158 119.832927 
L 109.765944 119.9986 
L 109.799207 119.986862 
L 109.965517 119.959835 
L 110.16509 119.997522 
L 110.364663 119.987029 
L 111.329265 119.949181 
L 111.395789 119.853298 
L 111.429051 119.996811 
L 111.595362 119.997131 
L 113.025633 119.944263 
L 113.12542 119.644815 
L 113.258468 119.99773 
L 114.68874 119.843618 
L 114.722002 119.762836 
L 114.755264 119.92486 
L 115.054623 119.966681 
L 115.32072 119.961358 
L 115.819652 119.963957 
L 115.985963 119.996134 
L 116.318584 119.952035 
L 116.71773 119.98454 
L 117.283186 119.967578 
L 117.382972 119.78791 
L 117.449496 119.920794 
L 117.649069 119.960739 
L 118.014953 119.98891 
L 118.181263 119.973258 
L 118.247788 119.809012 
L 118.314312 119.950259 
L 118.513885 119.979487 
L 118.813244 119.940673 
L 119.046079 119.991131 
L 119.112603 119.772228 
L 119.145865 119.913571 
L 119.278914 119.99643 
L 119.511749 119.966591 
L 119.711321 119.995932 
L 119.977418 119.775311 
L 120.043943 119.980252 
L 120.276778 119.964303 
L 120.842234 119.918785 
L 120.875496 119.997581 
L 120.94202 119.928495 
L 121.274641 119.96833 
L 121.640525 119.961904 
L 121.707049 119.804617 
L 121.740311 119.923561 
L 121.87336 119.972737 
L 122.072933 119.960186 
L 122.139457 119.890512 
L 122.172719 119.958358 
L 122.33903 119.97779 
L 122.904486 119.966908 
L 122.97101 119.515465 
L 123.004272 119.691524 
L 123.137321 119.97097 
L 123.403418 119.920915 
L 123.835825 119.952992 
L 124.600854 119.937007 
L 124.733903 119.942572 
L 124.833689 119.916269 
L 125 119.890822 
L 125.033262 119.979374 
L 125.066524 119.820398 
L 125.099786 119.640268 
L 125.133049 119.838512 
L 125.266097 119.931475 
L 125.365883 119.947621 
L 125.46567 119.984586 
L 125.498932 119.935476 
L 125.831553 119.921791 
L 125.898078 119.989533 
L 125.93134 119.92684 
L 126.031126 119.808464 
L 126.064388 119.876598 
L 126.164175 119.979345 
L 126.197437 119.935032 
L 126.330485 119.876674 
L 126.397009 119.978726 
L 126.430272 119.929544 
L 126.463534 119.902885 
L 126.496796 119.952753 
L 126.596582 119.976623 
L 126.629844 119.944498 
L 126.762893 119.869678 
L 126.829417 119.445113 
L 126.862679 119.604385 
L 126.995728 119.977364 
L 127.062252 119.887551 
L 127.128776 119.955534 
L 127.361611 119.983102 
L 127.428135 119.904465 
L 127.49466 119.977253 
L 127.627708 119.893603 
L 127.66097 119.97037 
L 127.694233 119.848011 
L 127.727495 119.813392 
L 127.760757 119.888034 
L 127.893805 119.961334 
L 128.492524 119.973048 
L 128.525786 119.998169 
L 128.559048 119.84562 
L 128.625572 119.974948 
L 128.991456 119.933481 
L 129.091242 119.978271 
L 129.124504 119.950189 
L 129.457125 119.969062 
L 129.52365 119.895843 
L 129.590174 119.954586 
L 129.756485 119.930966 
L 129.889533 119.973097 
L 130.055844 119.986925 
L 130.388465 119.98509 
L 130.721086 119.935291 
L 130.920659 119.956665 
L 131.286543 119.96934 
L 131.386329 119.997774 
L 132.750076 119.958073 
L 132.816601 119.916257 
L 132.849863 119.959821 
L 133.182484 119.985612 
L 133.348795 119.967476 
L 134.512969 119.958941 
L 134.546231 119.856721 
L 134.612756 119.947465 
L 134.712542 119.96207 
L 134.812328 119.962228 
L 134.945377 119.975394 
L 135.477571 119.952835 
L 135.610619 119.982528 
L 135.77693 119.980103 
L 136.109551 119.987381 
L 136.309124 119.887904 
L 136.508697 119.995506 
L 136.641745 119.985763 
L 137.107415 119.98037 
L 137.17394 119.828345 
L 137.207202 119.963721 
L 137.573085 119.993531 
L 137.872444 119.923574 
L 138.038755 119.970178 
L 138.304852 119.99516 
L 138.371376 119.901982 
L 138.437901 119.97606 
L 138.803784 119.987757 
L 138.870308 119.968921 
L 138.936832 119.898117 
L 138.970095 119.987183 
L 139.136405 119.977939 
L 139.668599 119.947487 
L 139.735124 119.846561 
L 139.768386 119.868805 
L 139.901434 119.967985 
L 140.067745 119.990692 
L 140.799512 119.982973 
L 141.132133 119.985936 
L 141.364968 119.934378 
L 141.464754 119.965584 
L 141.498016 119.934248 
L 141.764114 119.976107 
L 142.828502 119.956992 
L 142.994812 119.959375 
L 143.127861 119.728542 
L 143.161123 119.535415 
L 143.194385 119.861447 
L 143.227647 119.966873 
L 143.294171 119.93206 
L 143.493744 119.93471 
L 143.992676 119.831644 
L 144.025938 119.672847 
L 144.0592 119.862706 
L 144.092463 119.987748 
L 144.192249 119.960432 
L 144.491608 119.957943 
L 144.624657 119.978705 
L 144.824229 119.987329 
L 144.890754 119.760156 
L 144.924016 119.917297 
L 145.090327 119.981466 
L 145.389686 119.997684 
L 149.6805 119.969791 
L 149.813549 119.996277 
L 150.844675 119.930343 
L 150.877937 119.878506 
L 150.944461 119.974305 
L 151.70949 119.93036 
L 151.776015 119.93146 
L 151.909063 119.968336 
L 154.004577 119.984117 
L 154.237412 119.976668 
L 154.403723 119.963206 
L 154.66982 119.99599 
L 155.235276 119.957651 
L 155.401587 119.982494 
L 157.197742 119.961885 
L 157.530363 119.975774 
L 157.696674 119.955617 
L 157.896247 119.996427 
L 159.426305 119.972281 
L 159.459567 119.881358 
L 159.526091 119.995082 
L 159.858712 119.996388 
L 160.29112 119.926791 
L 160.324382 119.853263 
L 160.357644 119.875014 
L 160.490693 119.996532 
L 160.856576 119.963144 
L 161.022887 119.978168 
L 161.422032 119.961601 
L 161.654867 119.999181 
L 163.051877 119.857471 
L 163.085139 119.726983 
L 163.118401 119.811475 
L 163.251449 119.95236 
L 163.41776 119.977152 
L 163.816906 119.962823 
L 164.116265 119.976387 
L 164.615197 119.976524 
L 164.681721 119.911428 
L 164.714983 119.978363 
L 164.947818 119.95375 
L 165.213915 119.960513 
L 165.712847 119.969725 
L 167.043332 119.972523 
L 167.176381 119.948653 
L 167.242905 119.898678 
L 167.276167 119.937072 
L 167.442478 119.994089 
L 167.708575 119.945065 
L 167.908148 119.996039 
L 168.274031 119.963287 
L 168.506866 119.995014 
L 168.739701 119.978082 
L 168.872749 119.943256 
L 168.939274 119.74681 
L 168.972536 119.932358 
L 169.072322 119.965789 
L 169.138847 119.790956 
L 169.172109 119.8787 
L 169.305157 119.967952 
L 169.50473 119.969556 
L 169.770827 119.971728 
L 169.9704 119.949649 
L 170.003662 119.853422 
L 170.070186 119.927829 
L 170.269759 119.989405 
L 170.569118 119.978207 
L 170.801953 119.99404 
L 170.868477 119.870418 
L 170.935002 119.980747 
L 173.230088 119.948428 
L 173.263351 119.883825 
L 173.329875 119.987641 
L 173.595972 119.983267 
L 173.961855 119.994577 
L 174.19469 119.963118 
L 174.394263 119.998021 
L 175.891059 119.907436 
L 175.924321 119.834888 
L 175.957583 119.880114 
L 176.090632 119.996433 
L 176.389991 119.912861 
L 176.456515 119.677063 
L 176.489777 119.741335 
L 176.589564 119.999178 
L 176.622826 119.969569 
L 176.755874 119.959739 
L 177.454379 119.95965 
L 177.587428 119.959673 
L 177.820262 119.998221 
L 178.019835 119.973306 
L 182.743058 119.928438 
L 182.876106 119.995551 
L 183.175465 119.957985 
L 183.24199 119.965898 
L 183.275252 119.907268 
L 183.87397 119.974684 
L 183.907232 119.907693 
L 183.973756 119.971391 
L 184.406164 119.957724 
L 184.938358 119.986321 
L 185.27098 119.903145 
L 185.404028 119.981248 
L 185.703387 119.998054 
L 186.135795 119.942123 
L 186.302106 119.965469 
L 186.435154 119.972005 
L 186.667989 119.989271 
L 187.299969 119.971011 
L 188.364358 119.986175 
L 188.663717 119.975688 
L 189.195911 119.953888 
L 189.362222 119.97294 
L 189.561794 119.935658 
L 189.661581 119.995145 
L 190.859017 119.989107 
L 190.992066 119.990613 
L 191.291425 119.967206 
L 191.52426 119.954534 
L 191.657309 119.996465 
L 192.189503 119.944387 
L 192.322551 119.99064 
L 192.921269 119.98258 
L 194.384803 119.975816 
L 194.6509 119.998684 
L 195.316143 119.971506 
L 195.515716 119.969384 
L 195.648764 119.956871 
L 195.848337 119.991444 
L 196.081172 119.929668 
L 196.280745 119.997505 
L 199.041501 119.966526 
L 199.307598 119.988477 
L 202.001831 119.974328 
L 202.267928 119.984902 
L 210.58346 119.995539 
L 211.647849 119.999417 
L 211.98047 119.961339 
L 212.579188 119.997217 
L 213.044858 119.994364 
L 214.00946 119.99383 
L 214.242295 119.970177 
L 215.040586 119.979863 
L 215.273421 119.983602 
L 215.472994 119.986481 
L 215.872139 119.952523 
L 216.03845 119.996345 
L 217.402197 119.987775 
L 217.668294 119.976826 
L 217.901129 119.99252 
L 221.260604 119.99766 
L 230.87336 119.994435 
L 231.605127 119.994622 
L 231.804699 119.987221 
L 232.569728 119.896009 
L 232.669515 119.993726 
L 232.702777 119.977676 
L 233.101922 119.98508 
L 233.234971 119.974607 
L 234.898078 119.973612 
L 235.031126 119.998042 
L 235.09765 119.915498 
L 235.130912 119.982034 
L 235.430272 119.99788 
L 240.153494 119.976815 
L 240.353067 119.992506 
L 241.018309 119.957722 
L 241.084834 119.978199 
L 241.151358 119.858616 
L 241.18462 119.985594 
L 241.317669 119.990968 
L 241.683552 119.959816 
L 242.149222 119.965254 
L 242.382057 119.988802 
L 243.446445 119.96677 
L 243.612756 119.96728 
L 243.945377 119.98735 
L 244.14495 119.939505 
L 244.510833 119.920161 
L 244.677144 119.972675 
L 246.207202 119.899578 
L 246.240464 119.783375 
L 246.306988 119.942158 
L 246.639609 119.929941 
L 246.839182 119.985157 
L 247.138541 119.930619 
L 247.437901 119.972589 
L 247.637473 119.980725 
L 247.703998 119.930289 
L 247.73726 119.870111 
L 247.803784 119.930519 
L 248.735124 119.955713 
L 248.768386 119.905225 
L 248.83491 119.979562 
L 249.034483 119.959046 
L 250.464754 119.964291 
L 250.963686 119.936024 
L 251.196521 119.946794 
L 253.225511 119.982598 
L 253.52487 119.966562 
L 254.822093 119.917893 
L 255.054928 119.922926 
L 255.187977 119.986896 
L 255.720171 119.8643 
L 255.853219 119.975411 
L 256.185841 119.97733 
L 256.551724 119.95186 
L 256.584986 119.910021 
L 256.651511 119.966648 
L 256.851083 119.950361 
L 260.975587 119.958744 
L 261.308209 119.967214 
L 261.64083 119.991519 
L 261.807141 119.961624 
L 261.973451 119.994203 
L 262.073238 119.913322 
L 262.1065 119.975867 
L 262.372597 119.955248 
L 262.505645 119.967306 
L 263.370461 119.984166 
L 263.536771 119.894106 
L 263.66982 119.984397 
L 264.534635 119.945347 
L 264.734208 119.96576 
L 264.900519 119.94959 
L 265.100092 119.98866 
L 265.432713 119.929377 
L 266.231004 119.968085 
L 266.397315 119.95163 
L 267.561489 119.986802 
L 268.426305 119.953033 
L 268.659139 119.919701 
L 268.82545 119.958556 
L 269.058285 119.945565 
L 269.191334 119.957217 
L 269.324382 119.953267 
L 269.790052 119.973932 
L 269.956363 119.95293 
L 270.255722 119.9773 
L 270.488557 119.962132 
L 270.688129 119.986407 
L 271.220323 119.947797 
L 271.419896 119.988589 
L 271.685993 119.979348 
L 271.885566 119.995303 
L 272.051877 119.992452 
L 274.313702 119.990105 
L 288.317058 119.98447 
L 288.450107 119.998697 
L 291.343912 119.981288 
L 291.543485 119.972314 
L 292.574611 119.995544 
L 293.938358 119.998259 
L 296.433018 119.989923 
L 296.93195 119.995833 
L 297.430882 119.996994 
L 304.648764 119.995623 
L 304.881599 119.973437 
L 305.147696 119.999417 
L 308.407385 119.998168 
L 336.081477 119.99598 
L 339.574001 119.996438 
L 340.837962 119.995107 
L 343.133049 119.996905 
L 344.629844 119.997698 
L 375.097955 119.998984 
L 380.852304 119.998121 
L 406.364358 119.996518 
L 411.054318 119.996677 
L 413.016784 119.998724 
L 413.914861 119.997919 
L 416.675618 119.996055 
L 418.704608 119.999379 
L 420.134879 119.994754 
L 423.194995 119.997852 
L 435.734818 119.998156 
L 437.697284 119.996931 
L 439.65975 119.996817 
L 442.852914 119.997189 
L 446.977418 119.996048 
L 447.94202 119.99775 
L 449.571865 119.996948 
L 452 119.999062 
L 452 119.999062 
" clip-path="url(#p78f13445f6)" style="fill: none; stroke: #0000ff; stroke-width: 0.48; stroke-linecap: square"/>
   </g>
   <g id="patch_3">
    <path d="M 16 120 
L 16 20 
" style="fill: none; stroke: #000000; stroke-width: 0.45; stroke-linejoin: miter; stroke-linecap: square"/>
   </g>
   <g id="patch_4">
    <path d="M 452 120 
L 452 20 
" style="fill: none; stroke: #000000; stroke-width: 0.45; stroke-linejoin: miter; stroke-linecap: square"/>
   </g>
   <g id="patch_5">
    <path d="M 16 120 
L 452 120 
" style="fill: none; stroke: #000000; stroke-width: 0.45; stroke-linejoin: miter; stroke-linecap: square"/>
   </g>
   <g id="patch_6">
    <path d="M 16 20 
L 452 20 
" style="fill: none; stroke: #000000; stroke-width: 0.45; stroke-linejoin: miter; stroke-linecap: square"/>
   </g>
   <g id="text_19">
    <!-- timesignal (15).uff | 6-  3-2026 10: 1:58 | Native Velocity -->
    <g transform="translate(154.150547 17) scale(0.065 -0.065)">
     <defs>
      <path id="ArialMT-74" d="M 1650 503 
L 1731 6 
Q 1494 -44 1306 -44 
Q 1000 -44 831 53 
Q 663 150 594 308 
Q 525 466 525 972 
L 525 2881 
L 113 2881 
L 113 3319 
L 525 3319 
L 525 4141 
L 1084 4478 
L 1084 3319 
L 1650 3319 
L 1650 2881 
L 1084 2881 
L 1084 941 
Q 1084 700 1114 631 
Q 1144 563 1211 522 
Q 1278 481 1403 481 
Q 1497 481 1650 503 
z
" transform="scale(0.015625)"/>
      <path id="ArialMT-69" d="M 425 3934 
L 425 4581 
L 988 4581 
L 988 3934 
L 425 3934 
z
M 425 0 
L 425 3319 
L 988 3319 
L 988 0 
L 425 0 
z
" transform="scale(0.015625)"/>
      <path id="ArialMT-65" d="M 2694 1069 
L 3275 997 
Q 3138 488 2766 206 
Q 2394 -75 1816 -75 
Q 1088 -75 661 373 
Q 234 822 234 1631 
Q 234 2469 665 2931 
Q 1097 3394 1784 3394 
Q 2450 3394 2872 2941 
Q 3294 2488 3294 1666 
Q 3294 1616 3291 1516 
L 816 1516 
Q 847 969 1125 678 
Q 1403 388 1819 388 
Q 2128 388 2347 550 
Q 2566 713 2694 1069 
z
M 847 1978 
L 2700 1978 
Q 2663 2397 2488 2606 
Q 2219 2931 1791 2931 
Q 1403 2931 1139 2672 
Q 875 2413 847 1978 
z
" transform="scale(0.015625)"/>
      <path id="ArialMT-67" d="M 319 -275 
L 866 -356 
Q 900 -609 1056 -725 
Q 1266 -881 1628 -881 
Q 2019 -881 2231 -725 
Q 2444 -569 2519 -288 
Q 2563 -116 2559 434 
Q 2191 0 1641 0 
Q 956 0 581 494 
Q 206 988 206 1678 
Q 206 2153 378 2554 
Q 550 2956 876 3175 
Q 1203 3394 1644 3394 
Q 2231 3394 2613 2919 
L 2613 3319 
L 3131 3319 
L 3131 450 
Q 3131 -325 2973 -648 
Q 2816 -972 2473 -1159 
Q 2131 -1347 1631 -1347 
Q 1038 -1347 672 -1080 
Q 306 -813 319 -275 
z
M 784 1719 
Q 784 1066 1043 766 
Q 1303 466 1694 466 
Q 2081 466 2343 764 
Q 2606 1063 2606 1700 
Q 2606 2309 2336 2618 
Q 2066 2928 1684 2928 
Q 1309 2928 1046 2623 
Q 784 2319 784 1719 
z
" transform="scale(0.015625)"/>
      <path id="ArialMT-6e" d="M 422 0 
L 422 3319 
L 928 3319 
L 928 2847 
Q 1294 3394 1984 3394 
Q 2284 3394 2536 3286 
Q 2788 3178 2913 3003 
Q 3038 2828 3088 2588 
Q 3119 2431 3119 2041 
L 3119 0 
L 2556 0 
L 2556 2019 
Q 2556 2363 2490 2533 
Q 2425 2703 2258 2804 
Q 2091 2906 1866 2906 
Q 1506 2906 1245 2678 
Q 984 2450 984 1813 
L 984 0 
L 422 0 
z
" transform="scale(0.015625)"/>
      <path id="ArialMT-61" d="M 2588 409 
Q 2275 144 1986 34 
Q 1697 -75 1366 -75 
Q 819 -75 525 192 
Q 231 459 231 875 
Q 231 1119 342 1320 
Q 453 1522 633 1644 
Q 813 1766 1038 1828 
Q 1203 1872 1538 1913 
Q 2219 1994 2541 2106 
Q 2544 2222 2544 2253 
Q 2544 2597 2384 2738 
Q 2169 2928 1744 2928 
Q 1347 2928 1158 2789 
Q 969 2650 878 2297 
L 328 2372 
Q 403 2725 575 2942 
Q 747 3159 1072 3276 
Q 1397 3394 1825 3394 
Q 2250 3394 2515 3294 
Q 2781 3194 2906 3042 
Q 3031 2891 3081 2659 
Q 3109 2516 3109 2141 
L 3109 1391 
Q 3109 606 3145 398 
Q 3181 191 3288 0 
L 2700 0 
Q 2613 175 2588 409 
z
M 2541 1666 
Q 2234 1541 1622 1453 
Q 1275 1403 1131 1340 
Q 988 1278 909 1158 
Q 831 1038 831 891 
Q 831 666 1001 516 
Q 1172 366 1500 366 
Q 1825 366 2078 508 
Q 2331 650 2450 897 
Q 2541 1088 2541 1459 
L 2541 1666 
z
" transform="scale(0.015625)"/>
      <path id="ArialMT-6c" d="M 409 0 
L 409 4581 
L 972 4581 
L 972 0 
L 409 0 
z
" transform="scale(0.015625)"/>
      <path id="ArialMT-28" d="M 1497 -1347 
Q 1031 -759 709 28 
Q 388 816 388 1659 
Q 388 2403 628 3084 
Q 909 3875 1497 4659 
L 1900 4659 
Q 1522 4009 1400 3731 
Q 1209 3300 1100 2831 
Q 966 2247 966 1656 
Q 966 153 1900 -1347 
L 1497 -1347 
z
" transform="scale(0.015625)"/>
      <path id="ArialMT-29" d="M 791 -1347 
L 388 -1347 
Q 1322 153 1322 1656 
Q 1322 2244 1188 2822 
Q 1081 3291 891 3722 
Q 769 4003 388 4659 
L 791 4659 
Q 1378 3875 1659 3084 
Q 1900 2403 1900 1659 
Q 1900 816 1576 28 
Q 1253 -759 791 -1347 
z
" transform="scale(0.015625)"/>
      <path id="ArialMT-2e" d="M 581 0 
L 581 641 
L 1222 641 
L 1222 0 
L 581 0 
z
" transform="scale(0.015625)"/>
      <path id="ArialMT-75" d="M 2597 0 
L 2597 488 
Q 2209 -75 1544 -75 
Q 1250 -75 995 37 
Q 741 150 617 320 
Q 494 491 444 738 
Q 409 903 409 1263 
L 409 3319 
L 972 3319 
L 972 1478 
Q 972 1038 1006 884 
Q 1059 663 1231 536 
Q 1403 409 1656 409 
Q 1909 409 2131 539 
Q 2353 669 2445 892 
Q 2538 1116 2538 1541 
L 2538 3319 
L 3100 3319 
L 3100 0 
L 2597 0 
z
" transform="scale(0.015625)"/>
      <path id="ArialMT-7c" d="M 588 -1347 
L 588 4659 
L 1078 4659 
L 1078 -1347 
L 588 -1347 
z
" transform="scale(0.015625)"/>
      <path id="ArialMT-2d" d="M 203 1375 
L 203 1941 
L 1931 1941 
L 1931 1375 
L 203 1375 
z
" transform="scale(0.015625)"/>
      <path id="ArialMT-3a" d="M 578 2678 
L 578 3319 
L 1219 3319 
L 1219 2678 
L 578 2678 
z
M 578 0 
L 578 641 
L 1219 641 
L 1219 0 
L 578 0 
z
" transform="scale(0.015625)"/>
      <path id="ArialMT-4e" d="M 488 0 
L 488 4581 
L 1109 4581 
L 3516 984 
L 3516 4581 
L 4097 4581 
L 4097 0 
L 3475 0 
L 1069 3600 
L 1069 0 
L 488 0 
z
" transform="scale(0.015625)"/>
      <path id="ArialMT-56" d="M 1803 0 
L 28 4581 
L 684 4581 
L 1875 1253 
Q 2019 853 2116 503 
Q 2222 878 2363 1253 
L 3600 4581 
L 4219 4581 
L 2425 0 
L 1803 0 
z
" transform="scale(0.015625)"/>
      <path id="ArialMT-6f" d="M 213 1659 
Q 213 2581 725 3025 
Q 1153 3394 1769 3394 
Q 2453 3394 2887 2945 
Q 3322 2497 3322 1706 
Q 3322 1066 3130 698 
Q 2938 331 2570 128 
Q 2203 -75 1769 -75 
Q 1072 -75 642 372 
Q 213 819 213 1659 
z
M 791 1659 
Q 791 1022 1069 705 
Q 1347 388 1769 388 
Q 2188 388 2466 706 
Q 2744 1025 2744 1678 
Q 2744 2294 2464 2611 
Q 2184 2928 1769 2928 
Q 1347 2928 1069 2612 
Q 791 2297 791 1659 
z
" transform="scale(0.015625)"/>
      <path id="ArialMT-63" d="M 2588 1216 
L 3141 1144 
Q 3050 572 2676 248 
Q 2303 -75 1759 -75 
Q 1078 -75 664 370 
Q 250 816 250 1647 
Q 250 2184 428 2587 
Q 606 2991 970 3192 
Q 1334 3394 1763 3394 
Q 2303 3394 2647 3120 
Q 2991 2847 3088 2344 
L 2541 2259 
Q 2463 2594 2264 2762 
Q 2066 2931 1784 2931 
Q 1359 2931 1093 2626 
Q 828 2322 828 1663 
Q 828 994 1084 691 
Q 1341 388 1753 388 
Q 2084 388 2306 591 
Q 2528 794 2588 1216 
z
" transform="scale(0.015625)"/>
      <path id="ArialMT-79" d="M 397 -1278 
L 334 -750 
Q 519 -800 656 -800 
Q 844 -800 956 -737 
Q 1069 -675 1141 -563 
Q 1194 -478 1313 -144 
Q 1328 -97 1363 -6 
L 103 3319 
L 709 3319 
L 1400 1397 
Q 1534 1031 1641 628 
Q 1738 1016 1872 1384 
L 2581 3319 
L 3144 3319 
L 1881 -56 
Q 1678 -603 1566 -809 
Q 1416 -1088 1222 -1217 
Q 1028 -1347 759 -1347 
Q 597 -1347 397 -1278 
z
" transform="scale(0.015625)"/>
     </defs>
     <use xlink:href="#ArialMT-74"/>
     <use xlink:href="#ArialMT-69" transform="translate(27.783203 0)"/>
     <use xlink:href="#ArialMT-6d" transform="translate(50 0)"/>
     <use xlink:href="#ArialMT-65" transform="translate(133.300781 0)"/>
     <use xlink:href="#ArialMT-73" transform="translate(188.916016 0)"/>
     <use xlink:href="#ArialMT-69" transform="translate(238.916016 0)"/>
     <use xlink:href="#ArialMT-67" transform="translate(261.132812 0)"/>
     <use xlink:href="#ArialMT-6e" transform="translate(316.748047 0)"/>
     <use xlink:href="#ArialMT-61" transform="translate(372.363281 0)"/>
     <use xlink:href="#ArialMT-6c" transform="translate(427.978516 0)"/>
     <use xlink:href="#ArialMT-20" transform="translate(450.195312 0)"/>
     <use xlink:href="#ArialMT-28" transform="translate(477.978516 0)"/>
     <use xlink:href="#ArialMT-31" transform="translate(511.279297 0)"/>
     <use xlink:href="#ArialMT-35" transform="translate(566.894531 0)"/>
     <use xlink:href="#ArialMT-29" transform="translate(622.509766 0)"/>
     <use xlink:href="#ArialMT-2e" transform="translate(655.810547 0)"/>
     <use xlink:href="#ArialMT-75" transform="translate(683.59375 0)"/>
     <use xlink:href="#ArialMT-66" transform="translate(739.208984 0)"/>
     <use xlink:href="#ArialMT-66" transform="translate(765.242188 0)"/>
     <use xlink:href="#ArialMT-20" transform="translate(793.025391 0)"/>
     <use xlink:href="#ArialMT-7c" transform="translate(820.808594 0)"/>
     <use xlink:href="#ArialMT-20" transform="translate(846.785156 0)"/>
     <use xlink:href="#ArialMT-36" transform="translate(874.568359 0)"/>
     <use xlink:href="#ArialMT-2d" transform="translate(930.183594 0)"/>
     <use xlink:href="#ArialMT-20" transform="translate(963.484375 0)"/>
     <use xlink:href="#ArialMT-20" transform="translate(991.267578 0)"/>
     <use xlink:href="#ArialMT-33" transform="translate(1019.050781 0)"/>
     <use xlink:href="#ArialMT-2d" transform="translate(1074.666016 0)"/>
     <use xlink:href="#ArialMT-32" transform="translate(1107.966797 0)"/>
     <use xlink:href="#ArialMT-30" transform="translate(1163.582031 0)"/>
     <use xlink:href="#ArialMT-32" transform="translate(1219.197266 0)"/>
     <use xlink:href="#ArialMT-36" transform="translate(1274.8125 0)"/>
     <use xlink:href="#ArialMT-20" transform="translate(1330.427734 0)"/>
     <use xlink:href="#ArialMT-31" transform="translate(1358.210938 0)"/>
     <use xlink:href="#ArialMT-30" transform="translate(1413.826172 0)"/>
     <use xlink:href="#ArialMT-3a" transform="translate(1469.441406 0)"/>
     <use xlink:href="#ArialMT-20" transform="translate(1497.224609 0)"/>
     <use xlink:href="#ArialMT-31" transform="translate(1525.007812 0)"/>
     <use xlink:href="#ArialMT-3a" transform="translate(1580.623047 0)"/>
     <use xlink:href="#ArialMT-35" transform="translate(1608.40625 0)"/>
     <use xlink:href="#ArialMT-38" transform="translate(1664.021484 0)"/>
     <use xlink:href="#ArialMT-20" transform="translate(1719.636719 0)"/>
     <use xlink:href="#ArialMT-7c" transform="translate(1747.419922 0)"/>
     <use xlink:href="#ArialMT-20" transform="translate(1773.396484 0)"/>
     <use xlink:href="#ArialMT-4e" transform="translate(1801.179688 0)"/>
     <use xlink:href="#ArialMT-61" transform="translate(1873.396484 0)"/>
     <use xlink:href="#ArialMT-74" transform="translate(1929.011719 0)"/>
     <use xlink:href="#ArialMT-69" transform="translate(1956.794922 0)"/>
     <use xlink:href="#ArialMT-76" transform="translate(1979.011719 0)"/>
     <use xlink:href="#ArialMT-65" transform="translate(2029.011719 0)"/>
     <use xlink:href="#ArialMT-20" transform="translate(2084.626953 0)"/>
     <use xlink:href="#ArialMT-56" transform="translate(2112.410156 0)"/>
     <use xlink:href="#ArialMT-65" transform="translate(2173.609375 0)"/>
     <use xlink:href="#ArialMT-6c" transform="translate(2229.224609 0)"/>
     <use xlink:href="#ArialMT-6f" transform="translate(2251.441406 0)"/>
     <use xlink:href="#ArialMT-63" transform="translate(2307.056641 0)"/>
     <use xlink:href="#ArialMT-69" transform="translate(2357.056641 0)"/>
     <use xlink:href="#ArialMT-74" transform="translate(2379.273438 0)"/>
     <use xlink:href="#ArialMT-79" transform="translate(2407.056641 0)"/>
    </g>
   </g>
  </g>
 </g>
 <defs>
  <clipPath id="p78f13445f6">
   <rect x="16" y="20" width="436" height="100"/>
  </clipPath>
 </defs>
</svg>
